<svg width="375" height="249" viewBox="0 0 375 249" fill="none" xmlns="http://www.w3.org/2000/svg">
<path d="M0 -0.23822H374.208V246.809H0V-0.23822Z" fill="#164EA5"/>
<path d="M251.031 102.666C258.006 166.939 180.264 203.801 101.571 203.801C22.8792 203.801 2.71626 160.614 2.71626 108.413C2.71626 56.2119 22.8792 14.7646 101.571 14.7646C180.264 14.7646 251.031 30.8327 251.031 102.666Z" fill="#3170BB"/>
<rect y="168" width="85" height="79" fill="#3170BB"/>
<path d="M96 188L79.8541 246.314" stroke="#3170BB" stroke-width="15"/>
<rect y="121" width="68" height="85" fill="#3170BB"/>
<path d="M0 0H178.563L209 63.0208L178.563 121H0V0Z" fill="#3170BB"/>
<path d="M175.135 -6.19923e-06C224.456 41.3853 225.427 121.427 177.304 178.779" stroke="#3170BB" stroke-width="12"/>
</svg>
